<?xml version="1.0" encoding="utf-8"?>
<!-- Generator: Adobe Illustrator 26.1.0, SVG Export Plug-In . SVG Version: 6.00 Build 0)  -->
<svg version="1.1" id="Layer_1" xmlns="http://www.w3.org/2000/svg" xmlns:xlink="http://www.w3.org/1999/xlink" x="0px" y="0px"
	 viewBox="0 0 1223.6 457.3" style="enable-background:new 0 0 1223.6 457.3;" xml:space="preserve">
<style type="text/css">
	.st0{fill:#674D84;}
	.st1{fill:#636363;}
</style>
<g>
	<path class="st0" d="M410.2,266.1c0.9,0.6,2.1,0.4,2.9-0.3c40.9-41,88.3-88.1,128.9-129.1c16.3-16.5,36.9-20.7,57.5-15.9
		c27.2,6.4,37,25.7,29.7,53.3c-6.4,24-16.8,46.8-25.5,70.2c-14.4,38.6-28.9,77.2-43.3,115.8c-1.1,2.9-1.8,6-3.1,10.5h128.4
		c1.9,0.1,2.3,1,1.5,2.7c-3.6,6.2-6.5,12.9-11,18.3c-11.1,13.5-25.9,21.4-43.3,22c-42,1.5-84.1,2.3-126.2,2.9
		c-9.9,0.1-19.9-1.4-29.7-3c-17.6-2.9-26.8-17.1-21.1-34.8c7.7-23.9,16.8-47.4,25.6-71c8-21.3,16.4-42.5,24.6-63.7c0,0,0,0,0,0
		c0.8-2.2-2.1-3.9-3.6-2.1c-4.6,5-8.6,9.4-12.5,13.7c-35.4,38.8-70.6,77.9-106.5,116.3c-13.1,14.1-26.4,28.8-42.1,39.7
		c-19.3,13.5-41,12.6-61.5,0.1c-8.7-5.4-13.5-22.2-9-36c7.1-21.8,15.3-43.3,23.5-64.8c14-36.8,28.2-73.5,42.4-110.2
		c2.6-6.6,5.5-13.1,8.3-19.6c-1.1-0.7-0.8-0.5-1.9-1.2c-6,6.9-12,13.6-17.8,20.6c-40.9,49.3-81.7,98.6-122.5,147.9
		c-11,13.3-21.7,26.7-32.5,40.1c-13.3,16.5-29.9,27-51.7,27.2c-21.2,0.2-42.5,0-64.5,0L171.5,81H10.7c4.5-8.1,7.9-14.6,11.6-20.8
		c9.5-15.9,19-31.8,28.8-47.5c1.4-2.2,4.8-4.3,7.3-4.3c63.5-0.2,127-0.2,190.6,0c6.1,0,12.5,0.7,18.3,2.5
		c16.9,5.4,23.9,18.2,18.4,36.3c-8.9,29.5-18.8,58.6-28.7,87.8c-10.6,31.5-21.7,62.8-32.6,94.2c-1.5,4.4-3.6,8.6-5.4,12.9
		c0,0,0.4,1.6,2,1.6c2.6-2.6,5.3-5,7.8-7.8c27.5-31.1,54.9-62.3,82.5-93.3c18.3-20.5,36.9-40.8,55.5-61
		C386,60.8,410.9,53.8,438,55.3c22.1,1.2,40,20.5,32.6,47.4c-6.7,24.7-17,48.4-26,72.5c-10.7,28.5-24.3,59.5-35.3,88
		C408.9,264.3,409.3,265.5,410.2,266.1L410.2,266.1z"/>
	<path class="st1" d="M845.6,301.5c-2.1,2.3-3.9,5.1-6.4,6.7c-11.6,7.4-23.7,13.9-34.9,21.8c-9.9,7-20.3,9-32,7.8
		c-21.8-2.2-43.8-5.2-58.4-23.2c-7.4-9.2-12.9-21.3-15.3-32.9c-4.7-22.7-2.8-45.9,7.8-66.8c6.3-12.5,16-23.4,24.4-34.8
		c1.9-2.6,4.7-4.5,6.7-7c2.7-3.4,3.4-6.8,0-10.8c-3.5-4-6.9-3.3-10.7-1.5c-2.1,1-4,2.6-7,4.5c-2.7-17.1,1.4-31.6,12.7-42.7
		c11.3-11.1,25.8-11.5,40-5.7c25.8,10.5,30.1,36.5,9.5,55.3c-1.6,1.4-3.1,2.9-5.1,4.7c8.2,9.5,18.4,15.3,30.1,15.5
		c34.5,0.8,69.1,0.3,106.1,0.3c-1.6-11.6-3.1-22.6-4.7-33.5c-1-0.1-2.1-0.2-3.1-0.3c-1.6,2-3.2,3.9-4.8,5.9
		c-9.1,11.4-24.9,15.1-37.9,9c-11.9-5.6-18.5-19-14.3-33.4c4.6-15.9,9.7-31.8,16.9-46.6c7.9-16.2,20.7-17.4,32.8-4.3
		c16.3,17.6,24.7,39.2,26.1,62.7c1.4,24.2,0.6,48.5,1.2,72.8c0.2,6.3-2.2,7.7-8,7.7c-35.7-0.2-71.3-0.3-107,0.1
		c-26.4,0.2-45.8-10.5-57.1-34.5c-3.2-6.7-6.1-6.8-11.3-2.5c-16.2,13.8-29.1,29-28.7,52.2c0.3,18.1,8.5,30.6,23.9,38.9
		c18,9.7,38,11.4,57.9,12.5c16.1,0.9,32.4,0.2,48.6,0.2C844.3,300.2,844.9,300.9,845.6,301.5z M867.4,130.9c-1.3,7,3.8,9.1,9.9,9.6
		c5.9,0.5,14.7-5.7,14.9-10c0.3-5.1-7.8-12.7-13.6-12.8C873.3,117.7,867.5,124.1,867.4,130.9z"/>
	<path class="st1" d="M729.4,410.5c-6.1,2.5-11.7,6.3-17.8,7.1c-19.1,2.6-29.9-14.3-21.9-33.4c5.5-13.1,15.4-20.6,29.4-21.6
		c18.5-1.4,37-2.2,57.9-3.4c-5.6,16.1-10.4,30-15.8,45.6c12.6-0.5,23.4-1,34.9-1.5c4.6-12.7,9-25.3,13.9-37.7
		c0.9-2.3,3.6-5.2,5.6-5.4c7.7-0.6,15.5-0.3,24.5-0.3c-2.9,8.9-5.4,16.6-7.9,24.3c0.5,0.4,0.9,0.8,1.4,1.2
		c6.7-5.1,13.4-10.3,20.2-15.4c7.6-5.6,15.1-11,25.4-10.9c6.8,0.1,9.1,3,7.8,8.8c-1.7,7.3-4.1,14.4-6.3,21.5c-1.4,4.3-3,8.6-5,14.1
		c11.3,0,21.8,0,32.2,0c-3.7-22.3,12.6-39.6,32.1-41.1c18.7-1.4,37.6-1.8,57.7-2.7c-5.6,15.7-10.5,29.4-15.9,44.5
		c11.6,0,21.5,0.2,31.4-0.2c1.8-0.1,4.1-2.5,5-4.3c2.3-5.1,4.4-10.4,5.5-15.9c0.5-2.4-1.6-5.4-2.8-8.1c-2.1-4.4-4.4-8.7-6.4-12.7
		c2.3-1.8,2.8-2.5,3.1-2.4c13.3,1.8,18.2-5.8,20.7-17.2c1.6-7.3,4.9-14.2,7-21.4c1.4-4.7,3.9-6.4,8.8-6.1c7,0.4,14,0.1,22.7,0.1
		c-6.5,15.2-12.3,28.7-18.5,43.1c2.8,0.3,4.5,0.5,6.2,0.6c31.6,0.4,63.2,0.6,94.8,1.4c5.9,0.2,12,2.4,17.6,4.6
		c6.4,2.6,8.4,8.4,6.6,14.8c-1.7,6.2-5.6,10.3-12.9,9.9c-6.4-0.3-12.8-0.1-20.1-0.1c2.4-6,4.5-11,7-17.3c-5.9,0-10.6,0-15.4,0
		c-0.3,0-0.7,0-0.8,0.2c-3,8-7.4,15.9-8.4,24.2c-0.9,7,6.2,7.2,11.9,7.2c17.6-0.2,35.1-0.2,52.7-0.3c3.1,0,6.3,0,10.8,0
		c-5.7,7.8-11.6,11.6-20.2,11.5c-19.4-0.4-38.9,0.3-58.3-0.7c-10-0.5-21.7-1.5-25.5-13.1c-2.1-6.6-0.5-14.4-0.1-21.7
		c0.1-2.2,1.8-4.3,3.1-7.2c-13.8,0-26.6,0-40.4,0c0.6,2.5,0.8,4.5,1.5,6.3c7.2,17.1,3.2,32.8-8.7,45.5c-7.9,8.5-18.1,15.3-28.3,20.9
		c-5.9,3.2-14,3.6-21,3.3c-8.2-0.4-6.3-7.6-5.2-12.5c1.4-6.2,4.2-12.1,6.3-18.2c0.5-1.4,0.7-2.9,1-4.1c-21.1,1.9-42.1,7.8-62.8-4.2
		c-13.7,10.3-28.1,11.2-40.5-2.1c-17,9.4-47.2,12.2-64.5,5.1c2.2-8,4.4-16.3,6.6-24.5c-0.4-0.4-0.8-0.8-1.2-1.2
		c-5.3,4.2-10.8,8.2-15.9,12.6c-8.7,7.3-17,15.3-29,16.5c-4.8,0.5-12.7-6.1-12.7-6.1C772,411.8,749.3,421.8,729.4,410.5z M743,373.1
		c-17.6-2.1-20.7-0.1-24.3,14.1c-2.8,10.9-1,13.8,12.9,18.6C735.4,395,739.1,384.3,743,373.1z M963.8,373.1c-6.2,0-11-0.2-15.8,0.1
		c-1.7,0.1-4.4,1.2-4.7,2.3c-1.9,7.2-4,14.5-4.2,21.8c-0.1,2.3,5.2,5.4,8.5,6.9c1.4,0.6,5.5-1.4,6.2-3.1
		C957.5,392.2,960.4,383.1,963.8,373.1z M1023.7,435.8c14.8-4.7,21.2-16.6,25.7-29.4c1.6-4.7,3.3-11.7-4.5-16.3
		C1037.7,405.6,1030.7,420.7,1023.7,435.8z"/>
	<path class="st1" d="M1064.8,126.2c9.8,11.1,14.7,23.2,16.7,36.6c1.1,7.7,1.1,15.5,2,23.2c0.3,2.3,2.2,6.2,3.5,6.2
		c13.1,0.3,26.4,2.2,38.9-3.7c10.1-4.8,13.5-14.8,19.5-23c7.2-9.9,14.8-19.9,23.8-28c9.7-8.7,16.7-7,23.8,4.1
		c12.1,18.8,19.8,39.2,19.8,62c0,9.1,0,18.3,0,29.3c-9.3-1.4-17.9-1.9-25.9-4.1c-13.4-3.7-26.4-8.9-39.7-12.9
		c-2.6-0.8-7.3-0.1-8.9,1.8c-10.1,11.5-22.7,15-37.6,14.9c-40-0.4-80-0.1-119.9-0.2c-20.6,0-32.9-10.3-34.4-31.1
		c-2-26.3-2.5-52.6-3.4-79c-0.4-11.7-1.6-23-10.1-32.2c-1.3-1.4-1.7-4.7-1-6.5c4.2-10.6,8.8-21.1,13.7-32.7
		c9.3,11.9,13.6,24.7,14.4,38.4c1.2,20.7,0.8,41.5,2,62.2c0.6,11.1,2.6,22.3,5.3,33.1c0.8,3.3,6.3,7.6,9.8,7.7
		c30.5,0.6,60.9,0.3,92.4,0.3c-1.4-10.5-5.1-19.2-11.9-26.1c-3.9-4-4.1-7.4-2.4-12.1C1058.4,145.5,1061.3,136.4,1064.8,126.2z
		 M1184.7,187.6c-0.5-8.1-13.7-22-19.3-20.7c-3.7,0.8-6.8,5.8-9.4,9.5c-0.7,0.9,0.8,5,2.1,5.5c6.9,2.9,13.9,5.4,21.1,7.5
		C1180.8,189.8,1183.2,188.1,1184.7,187.6z"/>
	
		<rect x="859.7" y="21.4" transform="matrix(0.8864 0.4629 -0.4629 0.8864 118.1744 -401.9791)" class="st1" width="36.8" height="36.8"/>
	
		<rect x="1040.7" y="57" transform="matrix(0.8864 0.4629 -0.4629 0.8864 155.2049 -481.6914)" class="st1" width="36.8" height="36.8"/>
</g>
</svg>
