<svg width="512" height="512" viewBox="0 0 512 512" fill="none" xmlns="http://www.w3.org/2000/svg">
<path d="M256 490.667C251.734 490.667 247.467 488.533 243.2 486.4L192 450.133H130.134C121.6 450.133 113.067 443.733 108.8 435.2L89.6004 375.467L38.4004 339.2C29.8671 332.8 27.7338 324.267 29.8671 315.733L51.2004 256L32.0004 196.267C29.8671 187.733 32.0004 177.067 40.5338 172.8L91.7338 136.533L110.934 76.8C113.067 68.2667 121.6 61.8667 132.267 61.8667H194.134L245.334 25.6C253.867 19.2 262.4 19.2 270.934 25.6L320 61.8667H381.867C390.4 61.8667 398.934 68.2667 403.2 76.8L422.4 136.533L473.6 172.8C482.134 179.2 484.267 187.733 482.134 196.267L460.8 256L480 315.733C482.134 324.267 480 334.933 471.467 339.2L420.267 375.467L401.067 435.2C398.934 443.733 390.4 450.133 379.734 450.133H317.867L266.667 486.4C264.534 488.533 260.267 490.667 256 490.667ZM200.534 407.467C204.8 407.467 209.067 409.6 213.334 411.733L256 443.733L298.667 411.733C302.934 409.6 307.2 407.467 311.467 407.467H364.8L381.867 356.267C384 352 386.134 347.733 390.4 345.6L433.067 313.6L416 262.4C413.867 258.133 413.867 253.867 416 249.6L433.067 198.4L390.4 166.4C386.134 164.267 384 160 381.867 155.733L364.8 104.533H311.467C307.2 104.533 302.934 102.4 298.667 100.267L256 68.2667L213.334 100.267C209.067 102.4 204.8 104.533 200.534 104.533H147.2L130.134 155.733C128 160 125.867 164.267 121.6 166.4L78.9338 198.4L96.0004 249.6C98.1338 253.867 98.1338 258.133 96.0004 262.4L78.9338 313.6L121.6 345.6C125.867 347.733 128 352 130.134 356.267L147.2 407.467H200.534Z" fill="#24BFA1"/>
<path d="M234.667 330.667C228.267 330.667 224 328.533 219.733 324.267L166.4 270.933C157.867 262.4 157.867 249.6 166.4 241.067C174.933 232.533 187.733 232.533 196.267 241.067L234.667 279.467L326.4 187.733C334.933 179.2 347.733 179.2 356.267 187.733C364.8 196.267 364.8 209.067 356.267 217.6L249.6 324.267C245.333 328.533 241.067 330.667 234.667 330.667Z" fill="#24BFA1"/>
</svg>
