<svg width="512" height="512" viewBox="0 0 512 512" fill="none" xmlns="http://www.w3.org/2000/svg">
<path d="M477.002 33.5148L464.007 27.0677C443.618 16.9523 419.589 23.7503 410.425 42.2215L381.623 100.279C377.348 108.909 381.118 119.572 390.151 124.515L383.661 137.597C374.319 133.322 363.524 136.771 359.209 145.457L349.815 164.39C347.416 169.226 349.358 175.15 354.262 177.587L362.302 181.575L339.419 227.649H310.498V173.866C310.498 170.419 312.401 167.077 315.589 164.928C336.065 151.116 348.291 128.135 348.291 103.452C348.291 76.2023 333.449 51.1975 309.541 38.1927C305.603 36.0484 300.94 36.1542 297.065 38.4667C293.204 40.7648 290.805 44.9715 290.805 49.4427V87.4667L274.772 100.664C274.464 100.933 273.743 100.957 273.224 100.52L257.363 87.4667V49.4427C257.363 44.9715 254.969 40.7696 251.113 38.4667C247.238 36.159 242.584 36.058 238.613 38.1975C214.719 51.1975 199.877 76.2023 199.877 103.452C199.877 128.135 212.103 151.116 232.579 164.923C235.767 167.077 237.671 170.419 237.671 173.866V227.649H168.769L136.978 138.871C135.666 135.195 136.042 131.479 137.647 128.443C139.589 124.697 144.31 123.097 148.175 124.847C150.507 125.919 153.161 126.024 155.579 125.169L172.743 119.048C182.051 115.733 186.653 105.47 183.349 96.3705L167.796 53.5388C164.675 44.3898 154.618 39.5148 145.233 42.6975L134.31 46.5773C127.185 48.9955 121.397 54.4715 117.949 62.1109C117.296 63.6109 115.873 64.8465 114.041 65.4955C112.305 66.1109 110.512 66.0917 109.3 65.4571C101.526 61.3513 93.2091 60.5436 85.7812 63.1878L61.6658 72.0436C45.8629 77.8609 32.8437 87.4427 24.012 99.7455C6.47831 124.212 10.4783 148.399 14.4302 160.659C16.1514 165.972 20.8677 169.779 26.435 170.351C31.9591 170.957 37.161 168.274 39.6466 163.875C42.286 159.794 45.2139 157.284 49.2187 155.697C54.0216 153.765 60.012 154.02 65.661 156.443C66.0408 156.606 66.4447 156.746 66.8677 156.861C70.6754 158.462 75.2764 161.361 77.0745 166.327L99.0084 227.649H59.762C42.6892 227.649 28.2524 241.41 28.2524 259.255C28.2524 274.75 39.515 287.595 54.2716 290.209V435.822C54.2716 448.761 58.8617 460.643 66.4939 469.928H27.31C21.8725 469.928 17.4639 474.337 17.4639 479.774C17.4639 485.212 21.8725 489.621 27.31 489.621H484.68C490.118 489.621 494.526 485.212 494.526 479.774C494.526 474.337 490.118 469.928 484.68 469.928H445.496C453.129 460.643 457.719 448.761 457.719 435.822V290.225C472.669 287.592 483.738 274.703 483.738 259.255C483.738 241.827 469.603 227.649 452.228 227.649H405.824L415.595 208.014L423.642 212.005C428.46 214.398 434.4 212.47 436.839 207.558L446.228 188.63C450.393 180.237 447.091 169.534 437.699 164.395L444.19 151.308C453.675 155.649 464.411 151.987 468.642 143.452L497.411 85.4715C506.589 66.9619 497.435 43.659 477.002 33.5148ZM73.31 138.222C73.0312 138.116 72.7427 138.02 72.4399 137.938C62.1466 133.784 51.3149 133.616 41.911 137.414C37.8341 139.024 34.2043 141.207 30.9302 144.077C29.9447 134.548 31.5841 122.986 40.0168 111.222C46.536 102.135 56.3774 94.9763 68.4639 90.5244L92.4879 81.6975C95.3004 80.6975 98.4591 82.0052 100.171 82.909C106.291 86.0725 113.752 86.4907 120.632 84.0532C127.584 81.5821 133.185 76.4475 135.954 70.0869C136.603 68.6446 138.079 66.0917 140.772 65.1782L149.897 61.9378L164.151 101.202L152.276 105.438C139.781 101.938 126.272 107.539 120.19 119.332C117.738 123.981 116.493 129.058 116.493 134.428C116.493 138.169 117.147 141.895 118.44 145.505L147.599 226.943H119.671L95.6033 159.664C92.1466 150.101 84.2283 142.486 73.31 138.222ZM243.594 148.601C228.55 138.457 219.57 121.577 219.57 103.452C219.57 87.7215 226.296 73.0148 237.671 62.8032V92.1157C237.671 95.058 238.988 97.8465 241.262 99.7167L260.647 115.669C268.416 122.173 280.012 122.14 287.454 115.722L306.906 99.7167C309.18 97.8465 310.498 95.058 310.498 92.1157V62.808C321.877 73.0196 328.598 87.7263 328.598 103.452C328.598 121.577 319.618 138.457 304.579 148.601C295.954 154.419 290.805 163.861 290.805 173.866V227.649H257.363V173.866C257.363 163.866 252.219 154.423 243.594 148.601ZM351.834 290.765H393.195V334.38C393.195 335.342 392.416 336.121 391.454 336.121H353.574C352.613 336.121 351.834 335.342 351.834 334.38V290.765ZM118.796 290.765H160.156V334.38C160.156 335.342 159.377 336.121 158.416 336.121H120.536C119.574 336.121 118.796 335.342 118.796 334.38V290.765ZM99.1033 290.765V334.38C99.1033 346.197 108.719 355.813 120.536 355.813H158.416C170.233 355.813 179.849 346.197 179.849 334.38V290.765H332.142V334.38C332.142 346.197 341.757 355.813 353.574 355.813H391.454C403.272 355.813 412.887 346.197 412.887 334.38V290.765H438.026V435.822C438.026 454.592 422.796 469.866 404.079 469.866H107.911C89.1947 469.866 73.9639 454.592 73.9639 435.822V290.765H99.1033ZM464.046 259.255C464.046 266.096 458.415 271.072 452.228 271.072C-234.529 270.996 428.807 271.048 59.762 271.072C53.2475 271.072 47.9446 265.77 47.9446 259.255C47.9446 252.38 53.4863 247.342 59.762 247.342H452.228C458.743 247.342 464.046 252.688 464.046 259.255ZM397.949 199.274L384.18 226.943H361.757L379.943 190.327C380.931 190.818 399.098 199.845 397.949 199.274ZM479.767 76.7215L451.786 133.116C442.411 128.837 431.633 132.322 427.334 140.976L419.272 157.231C415.083 165.663 418.452 176.356 427.8 181.472L423.574 189.986C422.542 189.474 370.801 163.81 371.834 164.322L376.065 155.789C385.358 160.029 396.214 156.601 400.517 147.933L408.579 131.673C410.786 127.226 410.935 121.967 408.988 117.236C407.296 113.125 404.18 109.697 400.055 107.438L428.065 50.9715C432.406 42.2359 444.608 39.4282 455.257 44.7119L468.252 51.1542C478.959 56.4715 484.123 67.9378 479.767 76.7215Z" fill="#2FBFA1"/>
<path d="M116.627 444.106C122.065 444.106 126.474 439.697 126.474 434.26V386.39C126.474 380.952 122.065 376.544 116.627 376.544C111.19 376.544 106.781 380.952 106.781 386.39V434.26C106.781 439.697 111.19 444.106 116.627 444.106Z" fill="#2FBFA1"/>
<path d="M172.373 444.106C177.811 444.106 182.22 439.697 182.22 434.26V386.39C182.22 380.952 177.811 376.544 172.373 376.544C166.936 376.544 162.527 380.952 162.527 386.39V434.26C162.527 439.697 166.936 444.106 172.373 444.106Z" fill="#2FBFA1"/>
<path d="M228.123 444.106C233.561 444.106 237.97 439.697 237.97 434.26V337.962C237.97 332.524 233.561 328.116 228.123 328.116C222.686 328.116 218.277 332.524 218.277 337.962V434.26C218.277 439.697 222.686 444.106 228.123 444.106Z" fill="#2FBFA1"/>
<path d="M283.868 444.106C289.305 444.106 293.714 439.697 293.714 434.26V337.962C293.714 332.524 289.305 328.116 283.868 328.116C278.43 328.116 274.021 332.524 274.021 337.962V434.26C274.021 439.697 278.43 444.106 283.868 444.106Z" fill="#2FBFA1"/>
<path d="M339.614 444.106C345.051 444.106 349.46 439.697 349.46 434.26V386.39C349.46 380.952 345.051 376.544 339.614 376.544C334.176 376.544 329.768 380.952 329.768 386.39V434.26C329.768 439.697 334.176 444.106 339.614 444.106Z" fill="#2FBFA1"/>
<path d="M395.364 444.106C400.801 444.106 405.21 439.697 405.21 434.26V386.39C405.21 380.952 400.801 376.544 395.364 376.544C389.926 376.544 385.518 380.952 385.518 386.39V434.26C385.518 439.697 389.926 444.106 395.364 444.106Z" fill="#2FBFA1"/>
</svg>
