<svg width="512" height="512" viewBox="0 0 512 512" fill="none" xmlns="http://www.w3.org/2000/svg">
<path d="M288.905 272.132L392.639 294.709C433.437 303.588 462.525 339.711 462.5 381.464L462.438 502H49.5L49.562 381.355C49.588 339.651 78.652 303.594 119.4 294.714L223.205 272.093" stroke="#24BFA1" stroke-width="20" stroke-miterlimit="10" stroke-linecap="round" stroke-linejoin="round"/>
<path d="M335.492 148.708V176.065C335.492 219.988 299.885 255.595 255.962 255.595C212.039 255.595 176.432 219.988 176.432 176.065V148.708" stroke="#24BFA1" stroke-width="20" stroke-miterlimit="10" stroke-linecap="round" stroke-linejoin="round"/>
<path d="M158.668 115V107.293C158.668 53.56 202.227 10 255.961 10C309.694 10 353.254 53.559 353.254 107.293V115H158.668Z" stroke="#24BFA1" stroke-width="20" stroke-miterlimit="10" stroke-linecap="round" stroke-linejoin="round"/>
<path d="M313.254 155H198.668C176.577 155 158.668 137.091 158.668 115H353.254C353.254 137.091 335.345 155 313.254 155Z" stroke="#24BFA1" stroke-width="20" stroke-miterlimit="10" stroke-linecap="round" stroke-linejoin="round"/>
<path d="M255.961 68.168V10" stroke="#24BFA1" stroke-width="20" stroke-miterlimit="10" stroke-linecap="round" stroke-linejoin="round"/>
<path d="M303.961 57V23.5" stroke="#24BFA1" stroke-width="20" stroke-miterlimit="10" stroke-linecap="round" stroke-linejoin="round"/>
<path d="M207.961 57V23.5" stroke="#24BFA1" stroke-width="20" stroke-miterlimit="10" stroke-linecap="round" stroke-linejoin="round"/>
<path d="M288.063 249.835V271.348C288.063 289.078 273.69 303.451 255.96 303.451C238.23 303.451 223.857 289.078 223.857 271.348V249.835" stroke="#24BFA1" stroke-width="20" stroke-miterlimit="10" stroke-linecap="round" stroke-linejoin="round"/>
<path d="M138.49 292.265V372.933C138.49 394.644 131.981 415.857 119.803 433.832V501" stroke="#24BFA1" stroke-width="20" stroke-miterlimit="10" stroke-linecap="round" stroke-linejoin="round"/>
<path d="M237.227 397.322L255.964 432.775" stroke="#24BFA1" stroke-width="20" stroke-miterlimit="10" stroke-linecap="round" stroke-linejoin="round"/>
<path d="M176.43 282.286L195.169 317.743" stroke="#24BFA1" stroke-width="20" stroke-miterlimit="10" stroke-linecap="round" stroke-linejoin="round"/>
<path d="M255.965 432.775V502" stroke="#24BFA1" stroke-width="20" stroke-miterlimit="10" stroke-linecap="round" stroke-linejoin="round"/>
<path d="M120.805 462H255.965" stroke="#24BFA1" stroke-width="20" stroke-miterlimit="10" stroke-linecap="round" stroke-linejoin="round"/>
<path d="M255.965 432.775V502" stroke="#24BFA1" stroke-width="20" stroke-miterlimit="10" stroke-linecap="round" stroke-linejoin="round"/>
<path d="M119.804 437.086H50.5" stroke="#24BFA1" stroke-width="20" stroke-miterlimit="10" stroke-linecap="round" stroke-linejoin="round"/>
<path d="M373.432 292.265V372.933C373.432 394.644 379.941 415.857 392.119 433.832V501" stroke="#24BFA1" stroke-width="20" stroke-miterlimit="10" stroke-linecap="round" stroke-linejoin="round"/>
<path d="M335.237 282.766L255.957 432.775" stroke="#24BFA1" stroke-width="20" stroke-miterlimit="10" stroke-linecap="round" stroke-linejoin="round"/>
<path d="M255.957 432.775V502" stroke="#24BFA1" stroke-width="20" stroke-miterlimit="10" stroke-linecap="round" stroke-linejoin="round"/>
<path d="M391.117 462H255.957" stroke="#24BFA1" stroke-width="20" stroke-miterlimit="10" stroke-linecap="round" stroke-linejoin="round"/>
<path d="M255.957 432.775V502" stroke="#24BFA1" stroke-width="20" stroke-miterlimit="10" stroke-linecap="round" stroke-linejoin="round"/>
<path d="M392.117 437.086H461.421" stroke="#24BFA1" stroke-width="20" stroke-miterlimit="10" stroke-linecap="round" stroke-linejoin="round"/>
<circle cx="216.197" cy="357.531" r="10" fill="#24BFA1"/>
</svg>
