<svg width="512" height="512" viewBox="0 0 512 512" fill="none" xmlns="http://www.w3.org/2000/svg">
<path d="M482 363.58V316C482 266.612 466.075 219.669 435.947 180.247C409.204 145.254 372.228 118.417 330.944 103.804C329.795 80.007 310.077 61 286 61H226C201.923 61 182.205 80.007 181.056 103.804C139.772 118.417 102.796 145.254 76.053 180.247C45.925 219.669 30 266.612 30 316V363.58C12.541 369.772 0 386.445 0 406C0 430.813 20.187 451 45 451H467C491.813 451 512 430.813 512 406C512 386.445 499.459 369.772 482 363.58ZM60 316C60 261.909 83.106 211.272 121 175.145V226C121 234.284 127.716 241 136 241C144.284 241 151 234.284 151 226V151.617C160.452 145.583 170.477 140.319 181 135.938V256C181 264.284 187.716 271 196 271C204.284 271 211 264.284 211 256V114.932C211.001 114.891 211 114.85 211 114.809V106C211 97.729 217.729 91 226 91H286C294.271 91 301 97.729 301 106V114.805C301 114.848 300.999 114.89 301 114.933V256C301 264.284 307.716 271 316 271C324.284 271 331 264.284 331 256V135.938C341.523 140.32 351.548 145.584 361 151.617V226C361 234.284 367.716 241 376 241C384.284 241 391 234.284 391 226V175.145C428.894 211.272 452 261.909 452 316V361H60V316ZM467 421H45C36.729 421 30 414.271 30 406C30 397.729 36.729 391 45 391H467C475.271 391 482 397.729 482 406C482 414.271 475.271 421 467 421Z" fill="#24BFA1"/>
</svg>
