<svg xmlns="http://www.w3.org/2000/svg" width="244" height="37.19" viewBox="0 0 244 37.19">
    <defs>
        <clipPath id="e40eodwzba">
            <path data-name="Rectangle 2" d="M0 0h244v37.19H0z"/>
        </clipPath>
    </defs>
    <g data-name="KCA Deutag White">
        <g data-name="Group 1" style="clip-path:url(#e40eodwzba)">
            <path data-name="Path 1" d="M109.843 31.858 118.149 9s8.781-.02 12.488-.02c5.227 0 8.687 1.233 10.459 3.464 1.834 2.31 1.281 7.405-1.635 11.742s-6.152 5.37-8.519 6.314a28.332 28.332 0 0 1-8.9 1.358zm9.193-4.448h3.364c1.152 0 6.094-.266 9.015-3.931 2.8-3.511 2.687-6.146 1.849-7.535-.808-1.342-2.217-2.432-6-2.432-1.692 0-3.2.011-3.2.011z" transform="translate(3.194 .262)" style="fill-rule:evenodd"/>
            <path data-name="Path 2" d="M150.417 29.102h8.875l-1.019 3.018h-14.111l5.519-15.268h14.027l-.977 2.911h-8.938l-1.146 3.172h8.026l-.974 2.907h-8.1z"/>
            <path data-name="Path 3" d="M194.175 32.12h-5.146l4.468-12.357h-5.581l.974-2.91h16.557l-.975 2.91h-5.949z"/>
            <path data-name="Path 4" d="M109.843 31.858 118.149 9s8.781-.02 12.488-.02c5.227 0 8.687 1.233 10.459 3.464 1.834 2.31 1.281 7.405-1.635 11.742s-6.152 5.37-8.519 6.314a28.332 28.332 0 0 1-8.9 1.358zm9.193-4.448h3.364c1.152 0 6.094-.266 9.015-3.931 2.8-3.511 2.687-6.146 1.849-7.535-.808-1.342-2.217-2.432-6-2.432-1.692 0-3.2.011-3.2.011z" transform="translate(3.194 .262)" style="fill-rule:evenodd"/>
            <path data-name="Path 5" d="M98.039 21.64V10.372L89.37 21.64zM13.442 0 0 37.189h98.5v-10.3H85.089L81 32.3h-9.056l22.8-27.305h11.147l3.1 26.564 1.159-.766 8.974-24.7 2.217-.005s8.787-.021 12.5-.021c4.323 0 7.758.784 10.272 2.329L156.748 0zm17.283 32.3-5.6-14.577L19.817 32.3h-9.136L20.6 4.991h9.166L25.42 16.916 40.145 4.991h11.013L35.385 17.074 42.092 32.3zm48.36-18.734h-9.458a9.417 9.417 0 0 0 .083-1.289c0-.923-1.231-2.511-4.856-2.511-2.613 0-5.04 1.232-7.122 4.152a28.921 28.921 0 0 0-2.411 4.853c-1.21 2.913-2.092 7.279 1.127 8.506 2.352.9 6.42-.266 7.728-1.5A8.865 8.865 0 0 0 66 23.465h9.57a11.641 11.641 0 0 1-4.261 5.719c-2.866 2.149-10.432 3.664-14.618 3.664s-8.6-.823-10.729-3.812-1.288-8.5.5-12.249c3.3-6.915 7.636-9.555 11.565-10.995a25.234 25.234 0 0 1 8.68-1.334c3.815 0 12.027.866 12.846 5.129a7.943 7.943 0 0 1-.471 3.975" transform="translate(0 .001)" style="fill:#cc092f;fill-rule:evenodd"/>
            <path data-name="Path 6" d="M168.157 16.852h5.08l-3.413 9.379a2.135 2.135 0 0 0 1.493 3.119c4.087.384 5.506-2.042 5.728-2.654.987-2.668 3.659-9.844 3.659-9.844h5.081l-3.42 9.38a9.125 9.125 0 0 1-3.313 4.235c-1.606.984-3.565 1.936-8.533 1.936a11.55 11.55 0 0 1-2.581-.362 5.215 5.215 0 0 1-3.489-2.618 4.732 4.732 0 0 1 .073-2.438z"/>
            <path data-name="Path 7" d="M194.158 31.643 206.9 16.375h6.233l1.78 15.268h-5.909v-3.026h-7.5l-2.286 3.027zm14.592-12.259-4.848 6.3h4.848z" transform="translate(5.645 .477)" style="fill-rule:evenodd"/>
            <path data-name="Path 8" d="M243.129 23.387h-8.869l-1.054 2.971h3.788l-1.207 2.782a18.16 18.16 0 0 1-3.363.242c-2.214 0-3.318-1.513-3.318-2.367a6.51 6.51 0 0 1 .644-3.218 7.317 7.317 0 0 1 3.239-3.567 6.538 6.538 0 0 1 4.593-.5 1.294 1.294 0 0 1 .977 1.773h5.138a4.527 4.527 0 0 0 .2-2.473c-.512-1.758-2.526-2.534-7.3-2.534a15.218 15.218 0 0 0-9.381 3.28c-2.352 2.131-4.025 5.507-3.631 8.147s2.562 4.533 7.294 4.533a51.245 51.245 0 0 0 9.278-.958z"/>
        </g>
    </g>
</svg>
