<?xml version="1.0" encoding="UTF-8"?>
<svg width="222px" height="48px" viewBox="0 0 222 48" version="1.1" xmlns="http://www.w3.org/2000/svg" xmlns:xlink="http://www.w3.org/1999/xlink">
    <title>4A6D9E09-D3B7-4DF3-8D5A-E8CBCED1986F</title>
    <g id="PP-Home" stroke="none" stroke-width="1" fill="none" fill-rule="evenodd">
        <g transform="translate(-40.000000, -36.000000)" fill="#00447D" id="NEW-LOGO">
            <g transform="translate(40.000000, 36.000000)">
                <polygon id="Fill-1" points="32.4414356 2.04638321 32.4414356 2.04912395 32.4463689 2.04638321"></polygon>
                <g id="Group-6" transform="translate(0.000000, 0.008588)">
                    <path d="M32.4414173,27.2212563 L32.4414173,2.04060938 L31.4713778,2.64594765 C30.4293481,3.38320691 28.6250272,4.87051556 26.5395062,7.52994765 C22.3934963,12.8173847 22.1850173,20.2800563 16.7948938,25.877197 C9.44203457,33.5141798 2.65011358,34.3963328 0.620138272,34.4805649 L24.7865284,34.4805649 C27.4766568,34.4805649 28.7421481,34.1436365 29.8782765,33.3071625 C32.6634173,31.2552612 32.4414173,27.4353995 32.4414173,27.2212563 M6.11879506,28.976244 C10.2642568,23.6897205 10.4718222,16.2261353 15.8626765,10.6282637 C23.0629679,3.15115753 29.5651012,2.15407605 31.6891753,2.03786864 L7.65909136,2.03786864 C4.96896296,2.03786864 3.7034716,2.37388346 2.56734321,3.2110884 C-0.217066667,5.26317235 0.00420246914,9.08303407 0.00420246914,9.29717728 L0.00420246914,34.4690538 C0.0864246914,34.4220958 0.160607407,34.3771477 0.239723457,34.3300069 L1.46885432,33.5633304 C2.60863704,32.7398291 4.29455802,31.3016711 6.11879506,28.976244" id="Fill-2"></path>
                    <path d="M214.987504,10.9987753 C212.075376,10.9987753 209.503099,12.3576346 207.027845,14.3967457 L206.54182,11.5810914 L202.901203,11.5810914 L202.901203,34.5404593 L207.172739,34.5404593 L207.172739,17.8911901 C209.212033,16.1440593 211.444457,14.7850173 213.774087,14.7850173 C216.929593,14.7850173 217.706136,17.3088741 217.706136,20.5606716 L217.706136,34.5404593 L221.977855,34.5404593 L221.977855,19.153758 C221.977855,13.1349086 218.629035,10.9987753 214.987504,10.9987753 L214.987504,10.9987753 Z M192.711129,28.9091506 C191.740541,29.9290716 189.798452,31.5307605 187.177573,31.5307605 C184.702319,31.5307605 183.148502,29.9784049 183.148502,27.5987111 C183.148502,26.1919802 183.77942,25.0271654 184.944235,24.3461827 C185.915005,23.8616198 187.12824,23.5703704 188.973307,23.5212198 L192.711129,23.3770568 L192.711129,28.9091506 Z M196.982847,19.0075852 C196.982847,13.4738469 193.682447,10.9987753 188.488744,10.9987753 C185.770112,10.9987753 182.857983,11.6781136 180.187954,13.2798025 L181.692438,16.2410815 C183.343277,15.269763 185.333238,14.4446173 187.954117,14.4446173 C190.721168,14.4446173 192.711129,15.8528099 192.711129,19.1046074 L192.711129,20.317842 L188.43941,20.4641975 C186.109781,20.5606716 184.265445,20.8524691 182.663208,21.6290123 C180.333578,22.7446765 178.780492,24.7837877 178.780492,27.8420889 C178.780492,32.2587012 181.935084,35.0259358 186.158383,35.0259358 C189.021909,35.0259358 191.254334,33.7154963 193.002378,32.0652049 L193.729588,34.5404593 L197.419721,34.5404593 C197.128472,33.3749136 196.982847,31.2879309 196.982847,27.3560642 L196.982847,19.0075852 Z M173.927736,31.0938864 C172.714502,31.0938864 172.180605,30.5592593 172.180605,28.8128593 L172.180605,0.174128395 L167.908156,0.174128395 L167.908156,30.0268247 C167.908156,33.0838469 169.462704,34.8317086 172.665168,34.8317086 C173.782112,34.8317086 175.141154,34.5897926 176.208946,34.1529185 L175.335198,30.8033679 C174.946196,30.9482617 174.268319,31.0938864 173.927736,31.0938864 L173.927736,31.0938864 Z M150.922689,31.3851358 C149.515228,31.3851358 148.447435,31.1424889 147.234018,30.5592593 L147.234018,15.1241383 C148.398284,14.7850173 149.466625,14.5909728 150.729193,14.5909728 C155.194408,14.5909728 158.398334,17.2116691 158.398334,22.8908494 C158.398334,28.036316 155.825326,31.3851358 150.922689,31.3851358 L150.922689,31.3851358 Z M150.873356,10.9987753 C148.155455,10.9987753 145.437554,11.5324889 142.961751,12.406237 L142.961751,46.0444444 L147.234018,46.0444444 L147.234018,34.2970815 C148.350413,34.7339556 149.709272,35.0259358 151.116734,35.0259358 C157.960729,35.0259358 162.814946,30.2687407 162.814946,22.9401827 C162.814946,15.4645383 158.494625,10.9987753 150.873356,10.9987753 L150.873356,10.9987753 Z M127.189519,31.482158 C123.16063,31.482158 120.733796,27.939842 120.733796,23.0364741 C120.733796,18.0854173 123.16063,14.5416395 127.238121,14.5416395 C131.266462,14.5416395 133.694576,18.0854173 133.694576,23.0364741 C133.694576,27.939842 131.266462,31.482158 127.189519,31.482158 L127.189519,31.482158 Z M127.238121,10.9987753 C120.636773,10.9987753 116.317183,16.2410815 116.317183,23.0364741 C116.317183,29.7834469 120.636773,35.0259358 127.189519,35.0259358 C133.790867,35.0259358 138.110457,29.7834469 138.110457,23.0364741 C138.110457,16.2410815 133.741717,10.9987753 127.238121,10.9987753 L127.238121,10.9987753 Z M106.027346,14.3967457 L105.541321,11.5810914 L101.949855,11.5810914 L101.949855,34.5404593 L106.221573,34.5404593 L106.221573,17.8427704 C108.356976,15.7550568 109.862191,14.8820395 111.512482,14.8820395 C112.241154,14.8820395 112.968363,15.0762667 113.696487,15.4645383 L115.201702,11.6781136 C114.522181,11.2414222 113.45384,10.9987753 112.48307,10.9987753 C110.395356,10.9987753 108.453998,11.8237383 106.027346,14.3967457 L106.027346,14.3967457 Z M92.9724672,31.482158 C91.4678005,31.482158 90.6428375,30.6085926 90.6428375,28.5702123 L90.6428375,15.0269333 L96.3698894,15.0269333 L97.5354351,11.5810914 L90.6428375,11.5810914 L90.6428375,4.97974321 L86.371119,6.33878519 L86.371119,11.5810914 L82.4390696,11.5810914 L82.4390696,15.0269333 L86.371119,15.0269333 L86.371119,29.3951753 C86.371119,32.986642 88.4588326,35.0259358 92.0016968,35.0259358 C94.2836375,35.0259358 96.5646647,34.2970815 98.0698795,33.2300198 L96.660956,30.2687407 C95.7387881,30.8519704 94.4292622,31.482158 92.9724672,31.482158 L92.9724672,31.482158 Z M64.7249314,20.8040494 C64.7742647,17.3088741 66.7640425,14.3967457 70.0644425,14.3967457 C73.5110153,14.3967457 75.0641017,17.5999407 75.161124,20.8040494 L64.7249314,20.8040494 Z M70.0644425,10.9987753 C64.1910351,10.9987753 60.3561906,15.9014123 60.3561906,22.8908494 C60.3561906,29.4437778 63.8513659,35.0259358 71.4726351,35.0259358 C74.0935141,35.0259358 76.9091684,34.2970815 79.0445709,32.9389531 L77.6857116,29.9784049 C76.0832919,30.8519704 74.1905363,31.5307605 72.0065314,31.5307605 C67.4435635,31.5307605 64.8219536,28.3273827 64.7249314,24.0072444 L79.5784672,24.0072444 L79.5784672,22.9401827 C79.5784672,15.610163 76.0832919,10.9987753 70.0644425,10.9987753 L70.0644425,10.9987753 Z M50.8935091,18.5707111 C49.874319,19.1046074 48.4668573,19.4442765 46.5247684,19.4442765 L44.3891832,19.4442765 L44.3891832,6.09613827 L46.5731881,6.09613827 C48.6117511,6.09613827 50.0199437,6.48440988 51.0875536,7.1153284 C52.9812227,8.23154074 53.9518104,10.269921 53.9518104,12.7945086 C53.9518104,15.5131407 52.9812227,17.5029185 50.8935091,18.5707111 L50.8935091,18.5707111 Z M53.6600128,4.00915556 C51.9126993,3.03838519 49.7286943,2.55309136 46.6217906,2.55309136 L40.0690449,2.55309136 L40.0690449,34.5404593 L44.3891832,34.5404593 L44.3891832,22.9887852 L46.233519,22.9887852 C49.0970449,22.9887852 51.1847585,22.5511802 52.8834696,21.8232395 C56.8639388,20.0267753 58.4654449,16.4829975 58.4654449,12.7945086 C58.4654449,8.66841481 56.6697116,5.6592642 53.6600128,4.00915556 L53.6600128,4.00915556 Z" id="Fill-4"></path>
                </g>
            </g>
        </g>
    </g>
</svg>