<?xml version="1.0" encoding="utf-8"?>
<!-- Generator: Adobe Illustrator 25.3.1, SVG Export Plug-In . SVG Version: 6.00 Build 0)  -->
<svg version="1.1" id="Layer_1" xmlns="http://www.w3.org/2000/svg" xmlns:xlink="http://www.w3.org/1999/xlink" x="0px" y="0px"
	 viewBox="0 0 384.4 116.1" style="enable-background:new 0 0 384.4 116.1;" xml:space="preserve">
<style type="text/css">
	.st0{fill:#00338D;}
	.st1{fill:#DA291C;}
	.st2{fill:url(#SVGID_1_);}
	.st3{fill:url(#SVGID_2_);}
</style>
<g>
	<path class="st0" d="M31.4,109.4l0.6-0.1l0,1.7c-1.6,0.3-3,0.5-4.2,0.5c-1.6,0-2.7-0.4-3.3-1.3s-1-2.2-1-4.1c0-3.7,1.5-5.6,4.6-5.6
		c2.9,0,4.4,1.6,4.4,4.8l-0.1,1.6h-6.5c0,0.9,0.2,1.5,0.6,1.9c0.4,0.4,1,0.6,2,0.6S30.4,109.5,31.4,109.4z M30.2,105.2
		c0-1-0.2-1.8-0.5-2.2s-0.9-0.6-1.7-0.6c-0.8,0-1.4,0.2-1.7,0.7c-0.4,0.4-0.5,1.1-0.6,2.1H30.2z"/>
	<path class="st0" d="M37.6,111.3h-2.3v-10.5h2.3v0.7c1-0.6,2-0.9,2.9-0.9c1.4,0,2.4,0.4,2.9,1.2c0.5,0.8,0.8,2.1,0.8,3.9v5.6h-2.3
		v-5.6c0-1.1-0.1-1.9-0.4-2.4c-0.2-0.5-0.7-0.7-1.5-0.7c-0.7,0-1.4,0.1-2.1,0.4l-0.3,0.1V111.3z"/>
	<path class="st0" d="M54.8,109.4l0.6-0.1l0,1.7c-1.6,0.3-3,0.5-4.2,0.5c-1.6,0-2.7-0.4-3.3-1.3s-1-2.2-1-4.1c0-3.7,1.5-5.6,4.6-5.6
		c2.9,0,4.4,1.6,4.4,4.8l-0.1,1.6h-6.5c0,0.9,0.2,1.5,0.6,1.9c0.4,0.4,1,0.6,2,0.6S53.8,109.5,54.8,109.4z M53.6,105.2
		c0-1-0.2-1.8-0.5-2.2s-0.9-0.6-1.7-0.6c-0.8,0-1.4,0.2-1.7,0.7c-0.4,0.4-0.5,1.1-0.6,2.1H53.6z"/>
	<path class="st0" d="M58.7,111.3v-10.5h2.3v1.3c1.2-0.8,2.4-1.3,3.6-1.5v2.3c-1.2,0.2-2.2,0.5-3.1,0.9l-0.5,0.2v7.3H58.7z"/>
	<path class="st0" d="M76,112.7c0,2.3-1.7,3.4-5,3.4c-1.6,0-2.8-0.2-3.5-0.7c-0.8-0.4-1.2-1.2-1.2-2.4c0-0.5,0.1-1,0.4-1.3
		c0.3-0.4,0.7-0.8,1.2-1.2c-0.5-0.3-0.7-0.8-0.7-1.5c0-0.3,0.2-0.7,0.6-1.4l0.2-0.3c-1-0.6-1.5-1.7-1.5-3.1c0-1.3,0.4-2.2,1.1-2.8
		s1.8-0.9,3.1-0.9c0.6,0,1.2,0.1,1.8,0.2l0.3,0.1l3.3-0.1v1.8l-1.7-0.1c0.4,0.5,0.6,1.1,0.6,1.7c0,1.4-0.3,2.3-1,2.8
		c-0.7,0.5-1.8,0.8-3.2,0.8c-0.4,0-0.7,0-0.9-0.1c-0.2,0.5-0.3,0.8-0.3,1.1s0.1,0.4,0.4,0.5c0.3,0.1,0.9,0.2,1.9,0.2
		c1.7,0,2.8,0.2,3.4,0.7C75.7,110.7,76,111.5,76,112.7z M68.5,112.9c0,0.5,0.2,0.8,0.6,1.1c0.4,0.2,1.1,0.3,2,0.3
		c1.7,0,2.5-0.5,2.5-1.4c0-0.5-0.2-0.9-0.5-1c-0.3-0.1-0.9-0.2-1.8-0.2l-2.1-0.1c-0.3,0.3-0.5,0.5-0.7,0.7
		C68.6,112.3,68.5,112.6,68.5,112.9z M69.2,105.6c0.3,0.3,0.8,0.5,1.5,0.5c0.7,0,1.2-0.2,1.5-0.5c0.3-0.3,0.5-0.8,0.5-1.4
		c0-0.6-0.2-1.1-0.5-1.4c-0.3-0.3-0.8-0.5-1.5-0.5c-1.3,0-1.9,0.6-1.9,1.9C68.7,104.9,68.9,105.3,69.2,105.6z"/>
	<path class="st0" d="M77.5,100.8h2.2l2.2,8.5h0.6l2.2-8.5H87l-4,15h-2.2l1.3-4.5h-1.8L77.5,100.8z"/>
</g>
<path class="st1" d="M95.2,115.8V96.4h2.3v19.4H95.2z"/>
<g>
	<path class="st0" d="M110.6,100.5c0.7,0,1.6,0.1,2.6,0.3l0.5,0.1l-0.1,1.8c-1.1-0.1-1.9-0.2-2.5-0.2c-1.1,0-1.8,0.2-2.1,0.7
		c-0.4,0.5-0.5,1.4-0.5,2.7c0,1.3,0.2,2.2,0.5,2.7c0.3,0.5,1.1,0.8,2.2,0.8l2.5-0.2l0.1,1.8c-1.4,0.3-2.5,0.4-3.2,0.4
		c-1.6,0-2.7-0.4-3.4-1.3s-1-2.3-1-4.2s0.3-3.4,1-4.2C107.9,101,109.1,100.5,110.6,100.5z"/>
	<path class="st0" d="M118.9,111.3h-2.3V96.4h2.3v4.9c1-0.5,2-0.8,2.9-0.8c1.4,0,2.4,0.4,2.9,1.2c0.5,0.8,0.8,2.1,0.8,3.9v5.6h-2.3
		v-5.6c0-1.1-0.1-1.9-0.4-2.4c-0.2-0.5-0.7-0.7-1.5-0.7c-0.7,0-1.3,0.1-2,0.3l-0.3,0.1V111.3z"/>
	<path class="st0" d="M136.2,109.4l0.6-0.1l0,1.7c-1.6,0.3-3,0.5-4.2,0.5c-1.6,0-2.7-0.4-3.3-1.3s-1-2.2-1-4.1
		c0-3.7,1.5-5.6,4.6-5.6c2.9,0,4.4,1.6,4.4,4.8L137,107h-6.5c0,0.9,0.2,1.5,0.6,1.9s1,0.6,2,0.6S135.1,109.5,136.2,109.4z
		 M134.9,105.2c0-1-0.2-1.8-0.5-2.2s-0.9-0.6-1.7-0.6c-0.8,0-1.4,0.2-1.7,0.7c-0.4,0.4-0.5,1.1-0.6,2.1H134.9z"/>
	<path class="st0" d="M142.3,111.3H140v-10.5h2.3v0.7c1-0.6,1.9-0.9,2.7-0.9c1.2,0,2.1,0.3,2.7,1c1.3-0.7,2.5-1,3.8-1
		c1.3,0,2.1,0.4,2.7,1.2c0.5,0.8,0.8,2.1,0.8,3.9v5.6h-2.3v-5.6c0-1.1-0.1-1.9-0.3-2.4c-0.2-0.5-0.7-0.7-1.4-0.7
		c-0.6,0-1.3,0.1-2,0.4l-0.4,0.1c0.1,0.3,0.2,1.2,0.2,2.7v5.4h-2.3v-5.4c0-1.2-0.1-2.1-0.3-2.6c-0.2-0.5-0.7-0.7-1.5-0.7
		c-0.7,0-1.4,0.1-2,0.4l-0.3,0.1V111.3z"/>
	<path class="st0" d="M158.2,99v-2.4h2.3V99H158.2z M158.2,111.3v-10.5h2.3v10.5H158.2z"/>
	<path class="st0" d="M167.8,100.5c0.7,0,1.6,0.1,2.6,0.3l0.5,0.1l-0.1,1.8c-1.1-0.1-1.9-0.2-2.5-0.2c-1.1,0-1.8,0.2-2.1,0.7
		c-0.4,0.5-0.5,1.4-0.5,2.7c0,1.3,0.2,2.2,0.5,2.7c0.3,0.5,1.1,0.8,2.2,0.8l2.5-0.2l0.1,1.8c-1.4,0.3-2.5,0.4-3.2,0.4
		c-1.6,0-2.7-0.4-3.4-1.3s-1-2.3-1-4.2s0.3-3.4,1-4.2C165.2,101,166.3,100.5,167.8,100.5z"/>
	<path class="st0" d="M181.6,104v4.8c0,0.3,0.1,0.5,0.2,0.7c0.1,0.1,0.4,0.2,0.7,0.3l-0.1,1.7c-1.2,0-2.1-0.3-2.8-0.8
		c-1.1,0.5-2.2,0.8-3.4,0.8c-2.1,0-3.1-1.1-3.1-3.3c0-1.1,0.3-1.8,0.9-2.3c0.6-0.5,1.4-0.8,2.6-0.9l2.7-0.2V104c0-0.6-0.1-1-0.4-1.2
		c-0.2-0.2-0.6-0.3-1.1-0.3c-0.9,0-2,0.1-3.4,0.2l-0.7,0l-0.1-1.6c1.5-0.4,2.9-0.5,4.2-0.5c1.3,0,2.2,0.3,2.8,0.8
		C181.3,101.9,181.6,102.8,181.6,104z M176.9,106.6c-1,0.1-1.4,0.6-1.4,1.6s0.4,1.4,1.3,1.4c0.7,0,1.4-0.1,2.2-0.3l0.4-0.1v-2.8
		L176.9,106.6z"/>
	<path class="st0" d="M185.2,111.3V96.4h2.3v14.9H185.2z"/>
	<path class="st0" d="M198.3,102.9c-1.7-0.2-2.8-0.3-3.6-0.3s-1.3,0.1-1.5,0.3s-0.4,0.5-0.4,0.8s0.2,0.6,0.5,0.8
		c0.3,0.2,1.1,0.3,2.2,0.5s2,0.5,2.5,1c0.5,0.4,0.7,1.2,0.7,2.3c0,1.1-0.4,1.9-1.1,2.4s-1.7,0.8-3.1,0.8c-0.9,0-1.9-0.1-3.2-0.4
		l-0.7-0.1l0.1-1.9c1.7,0.2,2.9,0.3,3.6,0.3s1.3-0.1,1.6-0.3c0.3-0.2,0.5-0.5,0.5-0.9c0-0.4-0.2-0.7-0.5-0.9s-1-0.3-2.2-0.5
		c-1.1-0.2-2-0.5-2.5-0.9c-0.5-0.4-0.8-1.1-0.8-2.2s0.4-1.9,1.1-2.4s1.7-0.8,2.8-0.8c0.9,0,2,0.1,3.3,0.3l0.7,0.1L198.3,102.9z"/>
</g>
<path class="st1" d="M208.2,115.8V96.4h2.3v19.4H208.2z"/>
<g>
	<path class="st0" d="M220.5,111.3v-10.5h2.3v1.3c1.2-0.8,2.4-1.3,3.6-1.5v2.3c-1.2,0.2-2.2,0.5-3.1,0.9l-0.5,0.2v7.3H220.5z"/>
	<path class="st0" d="M236.1,109.4l0.6-0.1l0,1.7c-1.6,0.3-3,0.5-4.2,0.5c-1.6,0-2.7-0.4-3.3-1.3s-1-2.2-1-4.1
		c0-3.7,1.5-5.6,4.6-5.6c2.9,0,4.4,1.6,4.4,4.8l-0.1,1.6h-6.5c0,0.9,0.2,1.5,0.6,1.9s1,0.6,2,0.6S235,109.5,236.1,109.4z
		 M234.8,105.2c0-1-0.2-1.8-0.5-2.2s-0.9-0.6-1.7-0.6c-0.8,0-1.4,0.2-1.7,0.7c-0.4,0.4-0.5,1.1-0.6,2.1H234.8z"/>
	<path class="st0" d="M247.2,102.9c-1.7-0.2-2.8-0.3-3.6-0.3s-1.3,0.1-1.5,0.3s-0.4,0.5-0.4,0.8s0.2,0.6,0.5,0.8
		c0.3,0.2,1.1,0.3,2.2,0.5s2,0.5,2.5,1c0.5,0.4,0.7,1.2,0.7,2.3c0,1.1-0.4,1.9-1.1,2.4s-1.7,0.8-3.1,0.8c-0.9,0-1.9-0.1-3.2-0.4
		l-0.7-0.1l0.1-1.9c1.7,0.2,2.9,0.3,3.6,0.3s1.3-0.1,1.6-0.3c0.3-0.2,0.5-0.5,0.5-0.9c0-0.4-0.2-0.7-0.5-0.9s-1-0.3-2.2-0.5
		c-1.1-0.2-2-0.5-2.5-0.9c-0.5-0.4-0.8-1.1-0.8-2.2s0.4-1.9,1.1-2.4s1.7-0.8,2.8-0.8c0.9,0,2,0.1,3.3,0.3l0.7,0.1L247.2,102.9z"/>
	<path class="st0" d="M250.9,101.9c0.7-0.9,1.9-1.4,3.6-1.4c1.7,0,2.9,0.5,3.6,1.4c0.7,0.9,1.1,2.3,1.1,4.1c0,1.8-0.4,3.2-1,4.1
		c-0.7,0.9-1.9,1.4-3.6,1.4c-1.7,0-2.9-0.5-3.6-1.4s-1-2.3-1-4.1C249.9,104.2,250.2,102.8,250.9,101.9z M252.6,108.7
		c0.3,0.6,1,0.8,1.9,0.8c0.9,0,1.6-0.3,1.9-0.8c0.3-0.6,0.5-1.5,0.5-2.8c0-1.3-0.2-2.2-0.5-2.7c-0.3-0.5-1-0.8-1.9-0.8
		c-0.9,0-1.5,0.3-1.9,0.8c-0.3,0.5-0.5,1.4-0.5,2.7C252.2,107.3,252.3,108.2,252.6,108.7z"/>
	<path class="st0" d="M268.5,100.8h2.3v10.5h-2.3v-0.7c-1,0.6-2,0.9-2.8,0.9c-1.4,0-2.4-0.4-2.9-1.2s-0.7-2.1-0.7-4.1v-5.5h2.3v5.5
		c0,1.3,0.1,2.1,0.3,2.5c0.2,0.4,0.7,0.7,1.5,0.7c0.8,0,1.4-0.1,2.1-0.4l0.3-0.1V100.8z"/>
	<path class="st0" d="M274.2,111.3v-10.5h2.3v1.3c1.2-0.8,2.4-1.3,3.6-1.5v2.3c-1.2,0.2-2.2,0.5-3.1,0.9l-0.5,0.2v7.3H274.2z"/>
	<path class="st0" d="M286.2,100.5c0.7,0,1.6,0.1,2.6,0.3l0.5,0.1l-0.1,1.8c-1.1-0.1-1.9-0.2-2.5-0.2c-1.1,0-1.8,0.2-2.1,0.7
		c-0.4,0.5-0.5,1.4-0.5,2.7c0,1.3,0.2,2.2,0.5,2.7c0.3,0.5,1.1,0.8,2.2,0.8l2.5-0.2l0.1,1.8c-1.4,0.3-2.5,0.4-3.2,0.4
		c-1.6,0-2.7-0.4-3.4-1.3s-1-2.3-1-4.2s0.3-3.4,1-4.2C283.5,101,284.7,100.5,286.2,100.5z"/>
	<path class="st0" d="M299.6,109.4l0.6-0.1l0,1.7c-1.6,0.3-3,0.5-4.2,0.5c-1.6,0-2.7-0.4-3.3-1.3s-1-2.2-1-4.1
		c0-3.7,1.5-5.6,4.6-5.6c2.9,0,4.4,1.6,4.4,4.8l-0.1,1.6h-6.5c0,0.9,0.2,1.5,0.6,1.9s1,0.6,2,0.6S298.5,109.5,299.6,109.4z
		 M298.3,105.2c0-1-0.2-1.8-0.5-2.2s-0.9-0.6-1.7-0.6c-0.8,0-1.4,0.2-1.7,0.7c-0.4,0.4-0.5,1.1-0.6,2.1H298.3z"/>
	<path class="st0" d="M310.7,102.9c-1.7-0.2-2.8-0.3-3.6-0.3s-1.3,0.1-1.5,0.3s-0.4,0.5-0.4,0.8s0.2,0.6,0.5,0.8
		c0.3,0.2,1.1,0.3,2.2,0.5s2,0.5,2.5,1c0.5,0.4,0.7,1.2,0.7,2.3c0,1.1-0.4,1.9-1.1,2.4s-1.7,0.8-3.1,0.8c-0.9,0-1.9-0.1-3.2-0.4
		L303,111l0.1-1.9c1.7,0.2,2.9,0.3,3.6,0.3s1.3-0.1,1.6-0.3c0.3-0.2,0.5-0.5,0.5-0.9c0-0.4-0.2-0.7-0.5-0.9s-1-0.3-2.2-0.5
		c-1.1-0.2-2-0.5-2.5-0.9c-0.5-0.4-0.8-1.1-0.8-2.2s0.4-1.9,1.1-2.4s1.7-0.8,2.8-0.8c0.9,0,2,0.1,3.3,0.3l0.7,0.1L310.7,102.9z"/>
</g>
<path class="st0" d="M201.4,30.6v0.3c4-4.9,11.7-9.2,19-9.2v18.8c-1.1-0.4-2.8-0.6-4.8-0.6c-5,0-11.7,2.1-14.2,5.7v38.6H182V23.2
	h11.7l0.6,0c3.9,0,7.1,3.2,7.1,7.1L201.4,30.6z"/>
<path class="st0" d="M234.5,84.1c-3.9,0-7.1-3.2-7.1-7.1v-1.4V0.1h19.4v84h-9.7H234.5z"/>
<path class="st0" d="M286.3,21.7c18,0,31.1,13.2,31.1,33.9v4.2h-43.3c1.1,5.7,6.4,10.8,15.5,10.8c5.4,0,11.5-2.1,14.9-5.2l8.2,12.1
	c-6,5.4-16.1,8.1-25.5,8.1c-18.8,0-33.3-12.2-33.3-32C254,36,267.3,21.7,286.3,21.7z M273.9,47.2h25.1c-0.5-4.3-3.7-10.5-12.6-10.5
	C277.9,36.7,274.6,42.8,273.9,47.2z"/>
<path class="st0" d="M58.8,31.4L46,84.1H34.4h-5c-3.2,0-6-2.2-6.8-5.1l0,0L0,0h23.3l12.7,56.1L50.4,0l16.7,0l14.4,56.1L93,5.5l0,0
	C93.7,2.3,96.6,0,99.9,0l4.8,0l12.8,0L93.5,84H71.6L58.8,31.4L58.8,31.4z"/>
<path class="st0" d="M374.1,23.2h-5.2c-3.1,0-5.7,2-6.7,4.7l0,0L350,61.8l-13.7-38.6h-20.4L340,85h0c0,0-0.9,4.6-2.7,7
	c-1.7,2.3-4.2,4.7-8.6,4.7c0,0,0,0,0,0h-3.4v17h4.1c11.6-0.3,20.8-3.3,25.7-16.1l29.2-74.3H374.1z"/>
<g>
	<g>
		<linearGradient id="SVGID_1_" gradientUnits="userSpaceOnUse" x1="163.4153" y1="78.1463" x2="133.8599" y2="42.9235">
			<stop  offset="0.1" style="stop-color:#00338D"/>
			<stop  offset="1" style="stop-color:#44C7F4"/>
		</linearGradient>
		<path class="st2" d="M155.8,24.5v29.2c0,7.2-5.8,13-13,13h-29.2c5,11.2,16.2,19,29.2,19c17.6,0,31.9-14.3,31.9-31.9
			C174.8,40.7,167,29.5,155.8,24.5z"/>
	</g>
	<g>
		<linearGradient id="SVGID_2_" gradientUnits="userSpaceOnUse" x1="144.285" y1="65.9792" x2="125.82" y2="26.3807">
			<stop  offset="0.2" style="stop-color:#DA291C"/>
			<stop  offset="0.9" style="stop-color:#F05A22"/>
		</linearGradient>
		<path class="st3" d="M129.9,53.7c0-7.2,5.8-13,13-13s13,5.8,13,13V24.5c-4-1.8-8.3-2.7-13-2.7c-17.6,0-31.9,14.3-31.9,31.9
			c0,4.6,1,9,2.7,13h29.2C135.7,66.6,129.9,60.8,129.9,53.7z"/>
	</g>
</g>
</svg>
